<?xml version="1.0" standalone="no"?>
<!DOCTYPE svg PUBLIC "-//W3C//DTD SVG 20010904//EN"
 "http://www.w3.org/TR/2001/REC-SVG-20010904/DTD/svg10.dtd">
<svg version="1.0" xmlns="http://www.w3.org/2000/svg"
 width="300.000000pt" height="300.000000pt" viewBox="0 0 300.000000 300.000000"
 preserveAspectRatio="xMidYMid meet">
<metadata>
Created by potrace 1.10, written by Peter Selinger 2001-2011
</metadata>
<g transform="translate(0.000000,300.000000) scale(0.050000,-0.050000)"
fill="#070764" stroke="none">
<path d="M4120 5683 c0 -13 9 -23 21 -23 11 0 43 -22 71 -50 27 -27 74 -63
104 -79 140 -74 1264 -1269 1264 -1344 0 -73 -244 -607 -278 -607 -9 0 -43 34
-74 75 -253 332 -1552 1705 -1614 1705 -11 0 -53 31 -95 69 -127 115 -188 120
-426 39 -1079 -371 -1949 -1147 -2495 -2225 l-115 -227 60 -98 c33 -54 71
-105 84 -113 13 -8 40 -40 60 -71 57 -90 885 -1029 1286 -1457 202 -217 367
-403 367 -414 0 -23 -227 -113 -489 -195 l-179 -55 -129 138 c-122 132 -961
1107 -1135 1319 -45 55 -96 126 -113 159 -37 73 -42 60 -85 -219 -135 -881 6
-1539 350 -1629 555 -146 1663 -88 2286 119 1911 636 2994 2193 2994 4307 0
397 5 381 -206 630 -149 176 -138 171 -484 224 -214 33 -1030 50 -1030 22z
m-1186 -469 c151 -111 264 -314 176 -314 -46 0 -165 84 -193 135 -26 50 -65
36 -172 -61 -44 -40 -45 -42 -8 -83 67 -73 89 -130 62 -162 -38 -46 -79 -34
-151 44 l-67 74 -80 -36 c-143 -65 -163 -105 -84 -171 47 -40 64 -69 60 -103
-10 -71 -66 -67 -153 12 l-78 71 -78 -57 c-134 -97 -137 -108 -57 -181 124
-113 50 -190 -88 -94 -93 64 -87 65 -172 -10 l-71 -62 61 -78 c108 -136 40
-210 -89 -97 l-71 62 -55 -43 c-124 -97 -134 -140 -53 -223 46 -47 68 -86 60
-106 -18 -47 -100 -37 -153 19 -60 64 -81 63 -144 -5 -101 -108 -105 -136 -26
-196 86 -66 98 -149 22 -149 -27 0 -75 22 -107 49 l-59 49 -73 -75 c-88 -90
-89 -100 -13 -173 135 -129 47 -200 -106 -85 -182 137 -238 315 -100 315 50 0
169 139 155 182 -22 70 70 156 99 93 9 -19 15 -19 25 3 7 15 41 60 77 100 52
58 61 79 43 106 -28 44 39 127 77 96 38 -32 218 156 187 194 -36 42 48 123 91
88 43 -36 195 115 164 163 -15 24 -11 43 17 74 42 46 83 53 97 16 6 -17 27 -8
66 28 32 28 79 63 104 76 38 19 42 29 22 53 -40 49 54 136 107 99 35 -25 46
-23 92 21 29 27 73 55 99 61 35 9 40 18 23 38 -43 52 78 133 132 88 32 -26
206 94 208 144 2 67 91 73 175 11z"/>
</g>
</svg>
